<svg xmlns="http://www.w3.org/2000/svg" version="1.1" xmlnsXlink="http://www.w3.org/1999/xlink"
  xmlnsSvgjs="http://svgjs.dev/svgjs" width="2000" height="308" viewBox="0 0 2000 308">
  <g transform="matrix(1,0,0,1,-1.2121212121212466,1.2235032604556295)">
    <svg viewBox="0 0 396 61" data-background-color="#1b4571" preserveAspectRatio="xMidYMid meet"
      height="308" width="2000" xmlns="http://www.w3.org/2000/svg"
      xmlnsXlink="http://www.w3.org/1999/xlink">
      <g id="tight-bounds" transform="matrix(1,0,0,1,0.2400000000000091,-0.24231720418114833)">
        <svg viewBox="0 0 395.52 61.48463440836229" height="61.48463440836229" width="395.52">
          <g>
            <svg viewBox="0 0 437.377332349997 67.99146788542762" height="61.48463440836229"
              width="395.52">
              <g transform="matrix(1,0,0,1,0,13.149175318076335)">
                <svg viewBox="0 0 395.52 41.693117249274955" height="41.693117249274955"
                  width="395.52">
                  <g id="textblocktransform">
                    <svg viewBox="0 0 395.52 41.693117249274955" height="41.693117249274955"
                      width="395.52" id="textblock">
                      <g>
                        <svg viewBox="0 0 395.52 41.693117249274955" height="41.693117249274955"
                          width="395.52">
                          <g transform="matrix(1,0,0,1,0,0)">
                            <svg width="395.52" viewBox="-0.55 -39.25 377.58089246787995 39.63"
                              height="41.693117249274955"
                              data-palette-color="url(#36e16ab2-284f-445d-b8bb-bb792058c201)">
                              <g class="wordmark-text-0" data-fill-palette-color="primary"
                                id="text-0"></g>
                            </svg>
                          </g>
                        </svg>
                      </g>
                    </svg>
                  </g>
                </svg>
              </g>
              <g transform="matrix(1,0,0,1,405.3627443477398,0)">
                <svg viewBox="0 0 32.014588002257156 67.99146788542762" height="67.99146788542762"
                  width="32.014588002257156">
                  <g>
                    <svg xmlns="http://www.w3.org/2000/svg"
                      xmlnsXlink="http://www.w3.org/1999/xlink" version="1.1" x="0" y="0"
                      viewBox="28.8554298096053 5 42.33047985157229 89.9"
                      enable-background="new 0 0 100 100" xmlSpace="preserve"
                      height="67.99146788542762" width="32.014588002257156" class="icon-icon-0"
                      data-fill-palette-color="accent" id="icon-0"></svg>
                  </g>
                </svg>
              </g>
            </svg>
          </g>
          <defs></defs>
          <mask id="b4dce3ff-ec68-4119-8e12-861ec9a3e4fa">
            <g id="SvgjsG3489">
              <svg viewBox="0 0 395.52 61.48463440836229" height="61.48463440836229" width="395.52">
                <g>
                  <svg viewBox="0 0 437.377332349997 67.99146788542762" height="61.48463440836229"
                    width="395.52">
                    <g transform="matrix(1,0,0,1,0,13.149175318076335)">
                      <svg viewBox="0 0 395.52 41.693117249274955" height="41.693117249274955"
                        width="395.52">
                        <g id="SvgjsG3488">
                          <svg viewBox="0 0 395.52 41.693117249274955" height="41.693117249274955"
                            width="395.52" id="SvgjsSvg3487">
                            <g>
                              <svg viewBox="0 0 395.52 41.693117249274955"
                                height="41.693117249274955" width="395.52">
                                <g transform="matrix(1,0,0,1,0,0)">
                                  <svg width="395.52"
                                    viewBox="-0.55 -39.25 377.58089246787995 39.63"
                                    height="41.693117249274955"
                                    data-palette-color="url(#36e16ab2-284f-445d-b8bb-bb792058c201)">
                                    <g class="wordmark-text-0" data-fill-palette-color="primary"
                                      id="SvgjsG3486">
                                      <path
                                        d="M5.4-33.75L-0.55 0 7.83 0 12.78-27.9 12.85-27.9 14.95-0.93 24.83-0.93 36.45-27.9 36.52-27.9 31.63 0 40.03 0 45.95-33.75 32.1-33.75 20.85-6.98 20.78-6.98 18.95-33.75 5.4-33.75ZM55.62 0.3L55.62 0.3Q57.57 0.3 59.29-0.03 61-0.35 62.4-0.89 63.8-1.43 64.8-2.08 65.8-2.73 66.32-3.4L66.32-3.4 66.45 0 73.45 0 76.72-18.5Q77.47-22.65 76.2-25.16 74.92-27.68 71.85-28.8 68.77-29.93 64.07-29.93L64.07-29.93Q61.47-29.93 59.07-29.49 56.67-29.05 54.61-28.1 52.55-27.15 50.97-25.56 49.4-23.98 48.45-21.68L48.45-21.68 56.27-19.4Q56.95-21.23 58.05-22.3 59.15-23.38 60.5-23.84 61.85-24.3 63.3-24.3L63.3-24.3Q65.17-24.3 66.41-23.79 67.65-23.28 68.16-22.1 68.67-20.93 68.35-18.93L68.35-18.93 68.15-17.8 58.77-17.8Q57.02-17.8 55.25-17.56 53.47-17.32 51.87-16.73 50.27-16.13 48.98-15.09 47.7-14.05 46.87-12.43 46.05-10.8 45.85-8.5L45.85-8.5Q45.47-5.08 46.51-3.16 47.55-1.25 49.87-0.48 52.2 0.3 55.62 0.3ZM58.4-5.08L58.4-5.08Q57-5.08 56.05-5.4 55.1-5.73 54.67-6.6 54.25-7.48 54.42-9.13L54.42-9.13Q54.57-10.43 55.04-11.24 55.5-12.05 56.23-12.49 56.97-12.93 57.92-13.09 58.87-13.25 59.97-13.25L59.97-13.25 67.22-13.25 66.3-7.95Q65.65-7.2 64.45-6.54 63.25-5.88 61.69-5.48 60.12-5.08 58.4-5.08ZM85.15-39.25L78.25 0 86.67 0 88.17-8.68 93.3-12.95 97.47 0 106.4 0 100.07-18.68 111.27-29.65 101.42-29.65 89.87-18.07 93.57-39.25 85.15-39.25ZM124.44 0.28L124.44 0.28 125.42-5.15Q122.22-5.15 120.69-7.15L120.69-7.15Q119.14-9.13 120.14-14.83L120.14-14.83Q121.14-20.65 123.39-22.6L123.39-22.6Q125.67-24.53 128.69-24.53L128.69-24.53Q131.79-24.53 133.24-22.75L133.24-22.75Q134.22-21.23 133.82-17.43L133.82-17.43 119.84-17.43 118.94-12.35 141.32-12.35Q141.67-13.48 141.89-14.85L141.89-14.85Q143.12-21.88 140.62-25.93L140.62-25.93Q138.07-29.95 129.64-29.95L129.64-29.95Q121.47-29.95 117.34-25.95L117.34-25.95Q113.24-22 111.99-14.85L111.99-14.85Q110.82-7.85 113.44-3.78L113.44-3.78Q116.07 0.28 124.44 0.28ZM125.42-5.15L125.42-5.15 124.44 0.28Q128.92 0.28 131.67-0.6L131.67-0.6Q134.39-1.45 136.57-3.25L136.57-3.25Q138.69-5.03 139.77-7.95L139.77-7.95 132.62-10.08Q131.82-8.5 130.89-7.3L130.89-7.3Q129.92-6.15 128.64-5.63L128.64-5.63Q127.29-5.15 125.42-5.15ZM149.17-33.75L143.22 0 151.59 0 156.54-27.9 156.62-27.9 158.72-0.93 168.59-0.93 180.22-27.9 180.29-27.9 175.39 0 183.79 0 189.72-33.75 175.87-33.75 164.62-6.98 164.54-6.98 162.72-33.75 149.17-33.75ZM199.39 0.3L199.39 0.3Q201.34 0.3 203.05-0.03 204.76-0.35 206.16-0.89 207.56-1.43 208.56-2.08 209.56-2.73 210.09-3.4L210.09-3.4 210.21 0 217.21 0 220.49-18.5Q221.24-22.65 219.96-25.16 218.69-27.68 215.61-28.8 212.54-29.93 207.84-29.93L207.84-29.93Q205.24-29.93 202.84-29.49 200.44-29.05 198.38-28.1 196.31-27.15 194.74-25.56 193.16-23.98 192.21-21.68L192.21-21.68 200.04-19.4Q200.71-21.23 201.81-22.3 202.91-23.38 204.26-23.84 205.61-24.3 207.06-24.3L207.06-24.3Q208.94-24.3 210.18-23.79 211.41-23.28 211.93-22.1 212.44-20.93 212.11-18.93L212.11-18.93 211.91-17.8 202.54-17.8Q200.79-17.8 199.01-17.56 197.24-17.32 195.64-16.73 194.04-16.13 192.75-15.09 191.46-14.05 190.64-12.43 189.81-10.8 189.61-8.5L189.61-8.5Q189.24-5.08 190.28-3.16 191.31-1.25 193.64-0.48 195.96 0.3 199.39 0.3ZM202.16-5.08L202.16-5.08Q200.76-5.08 199.81-5.4 198.86-5.73 198.44-6.6 198.01-7.48 198.19-9.13L198.19-9.13Q198.34-10.43 198.8-11.24 199.26-12.05 200-12.49 200.74-12.93 201.69-13.09 202.64-13.25 203.74-13.25L203.74-13.25 210.99-13.25 210.06-7.95Q209.41-7.2 208.21-6.54 207.01-5.88 205.45-5.48 203.89-5.08 202.16-5.08ZM236.61 0.38L236.61 0.38Q240.01 0.38 243.21-0.33L243.21-0.33 244.19-5.88Q242.31-5.25 240.44-5.25L240.44-5.25Q238.61-5.25 237.74-6 236.86-6.75 237.29-9.15L237.29-9.15 239.89-23.85 248.99-23.85 250.01-29.63 240.91-29.63 242.09-36.4 233.69-36.4 232.49-29.63 225.74-29.63 224.71-23.85 231.49-23.85 228.54-7.3Q227.79-2.98 230.22-1.3 232.66 0.38 236.61 0.38ZM262.58 0.28L262.58 0.28Q269.93 0.28 273.33-2.94 276.73-6.15 277.73-9.43L277.73-9.43 270.76-12.13Q270.01-8.97 268.11-7.24 266.21-5.5 263.51-5.5L263.51-5.5Q260.83-5.5 259.53-7.39 258.23-9.28 258.81-14.25L258.81-14.25Q259.46-20.2 261.7-22.15 263.93-24.1 266.76-24.1L266.76-24.1Q269.46-24.1 270.75-22.45 272.03-20.8 271.68-17.38L271.68-17.38 279.61-19.98Q279.71-23.5 277.36-26.7 275.01-29.9 267.66-29.9L267.66-29.9Q259.23-29.9 255.05-25.83 250.86-21.75 250.23-13.85L250.23-13.85Q249.68-7.3 252.01-3.51 254.33 0.28 262.58 0.28ZM287.08-39.25L280.13 0 288.56 0 295.5-39.25 287.08-39.25ZM302.53-15.7L299.75 0 308.16 0 310.98-16.1Q312.11-22.43 310.53-26.16 308.95-29.9 303.2-29.9L303.2-29.9Q297.18-29.9 292.79-26.09 288.41-22.28 287.7-18.35L287.7-18.35 291.45-16.48Q292.06-19.88 294.24-22 296.43-24.13 299.06-24.13L299.06-24.13Q301.56-24.13 302.48-22.38 303.41-20.63 302.53-15.7L302.53-15.7ZM327.6 0.28L327.6 0.28 328.58-5.15Q325.38-5.15 323.85-7.15L323.85-7.15Q322.3-9.13 323.3-14.83L323.3-14.83Q324.3-20.65 326.55-22.6L326.55-22.6Q328.83-24.53 331.85-24.53L331.85-24.53Q334.95-24.53 336.4-22.75L336.4-22.75Q337.38-21.23 336.98-17.43L336.98-17.43 323-17.43 322.1-12.35 344.48-12.35Q344.83-13.48 345.05-14.85L345.05-14.85Q346.28-21.88 343.78-25.93L343.78-25.93Q341.23-29.95 332.8-29.95L332.8-29.95Q324.63-29.95 320.5-25.95L320.5-25.95Q316.4-22 315.15-14.85L315.15-14.85Q313.98-7.85 316.6-3.78L316.6-3.78Q319.23 0.28 327.6 0.28ZM328.58-5.15L328.58-5.15 327.6 0.28Q332.08 0.28 334.83-0.6L334.83-0.6Q337.55-1.45 339.73-3.25L339.73-3.25Q341.85-5.03 342.93-7.95L342.93-7.95 335.78-10.08Q334.98-8.5 334.05-7.3L334.05-7.3Q333.08-6.15 331.8-5.63L331.8-5.63Q330.45-5.15 328.58-5.15ZM367.98-15.05L367.98-15.05 376.38-15.05Q377.73-22.68 376.28-26.29 374.82-29.9 368.95-29.9L368.95-29.9Q363.48-29.9 359.63-27.04 355.78-24.18 355.03-19.98L355.03-19.98 357.93-18.07Q358.35-20.43 360.24-22.26 362.13-24.1 364.75-24.1L364.75-24.1Q367.05-24.1 368-22.38 368.95-20.65 367.98-15.05ZM351.6-29.63L346.38 0 354.78 0 359.1-24.5 358.13-29.63 351.6-29.63Z"
                                        fill="white"></path>
                                    </g>
                                  </svg>
                                </g>
                              </svg>
                            </g>
                          </svg>
                        </g>
                      </svg>
                    </g>
                    <g transform="matrix(1,0,0,1,405.3627443477398,0)">
                      <svg viewBox="0 0 32.014588002257156 67.99146788542762"
                        height="67.99146788542762" width="32.014588002257156">
                        <g>
                          <svg xmlns="http://www.w3.org/2000/svg"
                            xmlnsXlink="http://www.w3.org/1999/xlink" version="1.1" x="0" y="0"
                            viewBox="28.8554298096053 5 42.33047985157229 89.9"
                            enable-background="new 0 0 100 100" xmlSpace="preserve"
                            height="67.99146788542762" width="32.014588002257156"
                            class="icon-icon-0" data-fill-palette-color="accent" id="SvgjsSvg3485"><path d="M30 36.4c-4.4 6.5 4.4 21 17.6 15.6 13.2-5.5 13.4 5.9 9.8 10.4-6.4 8.1-4.5 17.3-4.5 17.3s2.5-9.1 12.5-18c13.7-12.3 0.8-31-15.1-23.4-12.4 5.9-13.3 2-13.4-1.1s5-10.4 5-10.4S34.3 29.9 30 36.4z" fill="black"></path><path d="M39.3 14.8c4.7 4.3 9.8 0.8 11.8 2.9C56 22.4 44.5 34 44.5 34s17.3-5.6 15.2-17.2c-1.3-7.1-7.6-8.1-14.1-6.4-8.7 2.3-8-5.4-8-5.4S34.4 10.2 39.3 14.8z" fill="black"></path><path d="M48.1 79.9c-7.3-8.6 1.4-20.6 1.4-20.6s-13 3.5-13.7 11.6c-0.7 8.1 3.5 8.8 6.6 13.2 3.1 4.5 1 10.8 1 10.8S53.9 86.8 48.1 79.9z" fill="black"></path></svg>
                        </g>
                      </svg>
                    </g>
                  </svg>
                </g>
                <defs>
                  <mask></mask>
                </defs>
              </svg>
              <rect width="395.52" height="61.48463440836229" fill="black" stroke="none"
                visibility="hidden"></rect>
            </g>
          </mask>
          <linearGradient x1="0" x2="1" y1="0.5" y2="0.5" id="36e16ab2-284f-445d-b8bb-bb792058c201">
            <stop stop-color="#ffa62e" offset="0"></stop>
            <stop stop-color="#f71b3d" offset="1"></stop>
          </linearGradient>
          <rect width="395.52" height="61.48463440836229"
            fill="url(#36e16ab2-284f-445d-b8bb-bb792058c201)"
            mask="url(#b4dce3ff-ec68-4119-8e12-861ec9a3e4fa)" data-fill-palette-color="primary"></rect>
          <mask id="8cafef75-b55c-446d-80dd-98d4e4c3ecf2">
            <g id="SvgjsG3499">
              <svg viewBox="0 0 395.52 61.48463440836229" height="61.48463440836229" width="395.52">
                <g>
                  <svg viewBox="0 0 437.377332349997 67.99146788542762" height="61.48463440836229"
                    width="395.52">
                    <g transform="matrix(1,0,0,1,0,13.149175318076335)">
                      <svg viewBox="0 0 395.52 41.693117249274955" height="41.693117249274955"
                        width="395.52">
                        <g id="SvgjsG3498">
                          <svg viewBox="0 0 395.52 41.693117249274955" height="41.693117249274955"
                            width="395.52" id="SvgjsSvg3497">
                            <g>
                              <svg viewBox="0 0 395.52 41.693117249274955"
                                height="41.693117249274955" width="395.52">
                                <g transform="matrix(1,0,0,1,0,0)">
                                  <svg width="395.52"
                                    viewBox="-0.55 -39.25 377.58089246787995 39.63"
                                    height="41.693117249274955"
                                    data-palette-color="url(#36e16ab2-284f-445d-b8bb-bb792058c201)">
                                    <g class="wordmark-text-0" data-fill-palette-color="primary"
                                      id="SvgjsG3496"></g>
                                  </svg>
                                </g>
                              </svg>
                            </g>
                          </svg>
                        </g>
                      </svg>
                    </g>
                    <g transform="matrix(1,0,0,1,405.3627443477398,0)">
                      <svg viewBox="0 0 32.014588002257156 67.99146788542762"
                        height="67.99146788542762" width="32.014588002257156">
                        <g>
                          <svg xmlns="http://www.w3.org/2000/svg"
                            xmlnsXlink="http://www.w3.org/1999/xlink" version="1.1" x="0" y="0"
                            viewBox="28.8554298096053 5 42.33047985157229 89.9"
                            enable-background="new 0 0 100 100" xmlSpace="preserve"
                            height="67.99146788542762" width="32.014588002257156"
                            class="icon-icon-0" data-fill-palette-color="accent" id="SvgjsSvg3495"><path d="M30 36.4c-4.4 6.5 4.4 21 17.6 15.6 13.2-5.5 13.4 5.9 9.8 10.4-6.4 8.1-4.5 17.3-4.5 17.3s2.5-9.1 12.5-18c13.7-12.3 0.8-31-15.1-23.4-12.4 5.9-13.3 2-13.4-1.1s5-10.4 5-10.4S34.3 29.9 30 36.4z" fill="white"></path><path d="M39.3 14.8c4.7 4.3 9.8 0.8 11.8 2.9C56 22.4 44.5 34 44.5 34s17.3-5.6 15.2-17.2c-1.3-7.1-7.6-8.1-14.1-6.4-8.7 2.3-8-5.4-8-5.4S34.4 10.2 39.3 14.8z" fill="white"></path><path d="M48.1 79.9c-7.3-8.6 1.4-20.6 1.4-20.6s-13 3.5-13.7 11.6c-0.7 8.1 3.5 8.8 6.6 13.2 3.1 4.5 1 10.8 1 10.8S53.9 86.8 48.1 79.9z" fill="white"></path></svg>
                        </g>
                      </svg>
                    </g>
                  </svg>
                </g>
                <defs>
                  <mask></mask>
                </defs>
                <mask>
                  <g id="SvgjsG3494">
                    <svg viewBox="0 0 395.52 61.48463440836229" height="61.48463440836229"
                      width="395.52">
                      <g>
                        <svg viewBox="0 0 437.377332349997 67.99146788542762"
                          height="61.48463440836229" width="395.52">
                          <g transform="matrix(1,0,0,1,0,13.149175318076335)">
                            <svg viewBox="0 0 395.52 41.693117249274955" height="41.693117249274955"
                              width="395.52">
                              <g id="SvgjsG3493">
                                <svg viewBox="0 0 395.52 41.693117249274955"
                                  height="41.693117249274955" width="395.52" id="SvgjsSvg3492">
                                  <g>
                                    <svg viewBox="0 0 395.52 41.693117249274955"
                                      height="41.693117249274955" width="395.52">
                                      <g transform="matrix(1,0,0,1,0,0)">
                                        <svg width="395.52"
                                          viewBox="-0.55 -39.25 377.58089246787995 39.63"
                                          height="41.693117249274955"
                                          data-palette-color="url(#36e16ab2-284f-445d-b8bb-bb792058c201)">
                                          <g class="wordmark-text-0"
                                            data-fill-palette-color="primary" id="SvgjsG3491">
                                            <path
                                              d="M5.4-33.75L-0.55 0 7.83 0 12.78-27.9 12.85-27.9 14.95-0.93 24.83-0.93 36.45-27.9 36.52-27.9 31.63 0 40.03 0 45.95-33.75 32.1-33.75 20.85-6.98 20.78-6.98 18.95-33.75 5.4-33.75ZM55.62 0.3L55.62 0.3Q57.57 0.3 59.29-0.03 61-0.35 62.4-0.89 63.8-1.43 64.8-2.08 65.8-2.73 66.32-3.4L66.32-3.4 66.45 0 73.45 0 76.72-18.5Q77.47-22.65 76.2-25.16 74.92-27.68 71.85-28.8 68.77-29.93 64.07-29.93L64.07-29.93Q61.47-29.93 59.07-29.49 56.67-29.05 54.61-28.1 52.55-27.15 50.97-25.56 49.4-23.98 48.45-21.68L48.45-21.68 56.27-19.4Q56.95-21.23 58.05-22.3 59.15-23.38 60.5-23.84 61.85-24.3 63.3-24.3L63.3-24.3Q65.17-24.3 66.41-23.79 67.65-23.28 68.16-22.1 68.67-20.93 68.35-18.93L68.35-18.93 68.15-17.8 58.77-17.8Q57.02-17.8 55.25-17.56 53.47-17.32 51.87-16.73 50.27-16.13 48.98-15.09 47.7-14.05 46.87-12.43 46.05-10.8 45.85-8.5L45.85-8.5Q45.47-5.08 46.51-3.16 47.55-1.25 49.87-0.48 52.2 0.3 55.62 0.3ZM58.4-5.08L58.4-5.08Q57-5.08 56.05-5.4 55.1-5.73 54.67-6.6 54.25-7.48 54.42-9.13L54.42-9.13Q54.57-10.43 55.04-11.24 55.5-12.05 56.23-12.49 56.97-12.93 57.92-13.09 58.87-13.25 59.97-13.25L59.97-13.25 67.22-13.25 66.3-7.95Q65.65-7.2 64.45-6.54 63.25-5.88 61.69-5.48 60.12-5.08 58.4-5.08ZM85.15-39.25L78.25 0 86.67 0 88.17-8.68 93.3-12.95 97.47 0 106.4 0 100.07-18.68 111.27-29.65 101.42-29.65 89.87-18.07 93.57-39.25 85.15-39.25ZM124.44 0.28L124.44 0.28 125.42-5.15Q122.22-5.15 120.69-7.15L120.69-7.15Q119.14-9.13 120.14-14.83L120.14-14.83Q121.14-20.65 123.39-22.6L123.39-22.6Q125.67-24.53 128.69-24.53L128.69-24.53Q131.79-24.53 133.24-22.75L133.24-22.75Q134.22-21.23 133.82-17.43L133.82-17.43 119.84-17.43 118.94-12.35 141.32-12.35Q141.67-13.48 141.89-14.85L141.89-14.85Q143.12-21.88 140.62-25.93L140.62-25.93Q138.07-29.95 129.64-29.95L129.64-29.95Q121.47-29.95 117.34-25.95L117.34-25.95Q113.24-22 111.99-14.85L111.99-14.85Q110.82-7.85 113.44-3.78L113.44-3.78Q116.07 0.28 124.44 0.28ZM125.42-5.15L125.42-5.15 124.44 0.28Q128.92 0.28 131.67-0.6L131.67-0.6Q134.39-1.45 136.57-3.25L136.57-3.25Q138.69-5.03 139.77-7.95L139.77-7.95 132.62-10.08Q131.82-8.5 130.89-7.3L130.89-7.3Q129.92-6.15 128.64-5.63L128.64-5.63Q127.29-5.15 125.42-5.15ZM149.17-33.75L143.22 0 151.59 0 156.54-27.9 156.62-27.9 158.72-0.93 168.59-0.93 180.22-27.9 180.29-27.9 175.39 0 183.79 0 189.72-33.75 175.87-33.75 164.62-6.98 164.54-6.98 162.72-33.75 149.17-33.75ZM199.39 0.3L199.39 0.3Q201.34 0.3 203.05-0.03 204.76-0.35 206.16-0.89 207.56-1.43 208.56-2.08 209.56-2.73 210.09-3.4L210.09-3.4 210.21 0 217.21 0 220.49-18.5Q221.24-22.65 219.96-25.16 218.69-27.68 215.61-28.8 212.54-29.93 207.84-29.93L207.84-29.93Q205.24-29.93 202.84-29.49 200.44-29.05 198.38-28.1 196.31-27.15 194.74-25.56 193.16-23.98 192.21-21.68L192.21-21.68 200.04-19.4Q200.71-21.23 201.81-22.3 202.91-23.38 204.26-23.84 205.61-24.3 207.06-24.3L207.06-24.3Q208.94-24.3 210.18-23.79 211.41-23.28 211.93-22.1 212.44-20.93 212.11-18.93L212.11-18.93 211.91-17.8 202.54-17.8Q200.79-17.8 199.01-17.56 197.24-17.32 195.64-16.73 194.04-16.13 192.75-15.09 191.46-14.05 190.64-12.43 189.81-10.8 189.61-8.5L189.61-8.5Q189.24-5.08 190.28-3.16 191.31-1.25 193.64-0.48 195.96 0.3 199.39 0.3ZM202.16-5.08L202.16-5.08Q200.76-5.08 199.81-5.4 198.86-5.73 198.44-6.6 198.01-7.48 198.19-9.13L198.19-9.13Q198.34-10.43 198.8-11.24 199.26-12.05 200-12.49 200.74-12.93 201.69-13.09 202.64-13.25 203.74-13.25L203.74-13.25 210.99-13.25 210.06-7.95Q209.41-7.2 208.21-6.54 207.01-5.88 205.45-5.48 203.89-5.08 202.16-5.08ZM236.61 0.38L236.61 0.38Q240.01 0.38 243.21-0.33L243.21-0.33 244.19-5.88Q242.31-5.25 240.44-5.25L240.44-5.25Q238.61-5.25 237.74-6 236.86-6.75 237.29-9.15L237.29-9.15 239.89-23.85 248.99-23.85 250.01-29.63 240.91-29.63 242.09-36.4 233.69-36.4 232.49-29.63 225.74-29.63 224.71-23.85 231.49-23.85 228.54-7.3Q227.79-2.98 230.22-1.3 232.66 0.38 236.61 0.38ZM262.58 0.28L262.58 0.28Q269.93 0.28 273.33-2.94 276.73-6.15 277.73-9.43L277.73-9.43 270.76-12.13Q270.01-8.97 268.11-7.24 266.21-5.5 263.51-5.5L263.51-5.5Q260.83-5.5 259.53-7.39 258.23-9.28 258.81-14.25L258.81-14.25Q259.46-20.2 261.7-22.15 263.93-24.1 266.76-24.1L266.76-24.1Q269.46-24.1 270.75-22.45 272.03-20.8 271.68-17.38L271.68-17.38 279.61-19.98Q279.71-23.5 277.36-26.7 275.01-29.9 267.66-29.9L267.66-29.9Q259.23-29.9 255.05-25.83 250.86-21.75 250.23-13.85L250.23-13.85Q249.68-7.3 252.01-3.51 254.33 0.28 262.58 0.28ZM287.08-39.25L280.13 0 288.56 0 295.5-39.25 287.08-39.25ZM302.53-15.7L299.75 0 308.16 0 310.98-16.1Q312.11-22.43 310.53-26.16 308.95-29.9 303.2-29.9L303.2-29.9Q297.18-29.9 292.79-26.09 288.41-22.28 287.7-18.35L287.7-18.35 291.45-16.48Q292.06-19.88 294.24-22 296.43-24.13 299.06-24.13L299.06-24.13Q301.56-24.13 302.48-22.38 303.41-20.63 302.53-15.7L302.53-15.7ZM327.6 0.28L327.6 0.28 328.58-5.15Q325.38-5.15 323.85-7.15L323.85-7.15Q322.3-9.13 323.3-14.83L323.3-14.83Q324.3-20.65 326.55-22.6L326.55-22.6Q328.83-24.53 331.85-24.53L331.85-24.53Q334.95-24.53 336.4-22.75L336.4-22.75Q337.38-21.23 336.98-17.43L336.98-17.43 323-17.43 322.1-12.35 344.48-12.35Q344.83-13.48 345.05-14.85L345.05-14.85Q346.28-21.88 343.78-25.93L343.78-25.93Q341.23-29.95 332.8-29.95L332.8-29.95Q324.63-29.95 320.5-25.95L320.5-25.95Q316.4-22 315.15-14.85L315.15-14.85Q313.98-7.85 316.6-3.78L316.6-3.78Q319.23 0.28 327.6 0.28ZM328.58-5.15L328.58-5.15 327.6 0.28Q332.08 0.28 334.83-0.6L334.83-0.6Q337.55-1.45 339.73-3.25L339.73-3.25Q341.85-5.03 342.93-7.95L342.93-7.95 335.78-10.08Q334.98-8.5 334.05-7.3L334.05-7.3Q333.08-6.15 331.8-5.63L331.8-5.63Q330.45-5.15 328.58-5.15ZM367.98-15.05L367.98-15.05 376.38-15.05Q377.73-22.68 376.28-26.29 374.82-29.9 368.95-29.9L368.95-29.9Q363.48-29.9 359.63-27.04 355.78-24.18 355.03-19.98L355.03-19.98 357.93-18.07Q358.35-20.43 360.24-22.26 362.13-24.1 364.75-24.1L364.75-24.1Q367.05-24.1 368-22.38 368.95-20.65 367.98-15.05ZM351.6-29.63L346.38 0 354.78 0 359.1-24.5 358.13-29.63 351.6-29.63Z"
                                              fill="black"></path>
                                          </g>
                                        </svg>
                                      </g>
                                    </svg>
                                  </g>
                                </svg>
                              </g>
                            </svg>
                          </g>
                          <g transform="matrix(1,0,0,1,405.3627443477398,0)">
                            <svg viewBox="0 0 32.014588002257156 67.99146788542762"
                              height="67.99146788542762" width="32.014588002257156">
                              <g>
                                <svg xmlns="http://www.w3.org/2000/svg"
                                  xmlnsXlink="http://www.w3.org/1999/xlink" version="1.1" x="0"
                                  y="0" viewBox="28.8554298096053 5 42.33047985157229 89.9"
                                  enable-background="new 0 0 100 100" xmlSpace="preserve"
                                  height="67.99146788542762" width="32.014588002257156"
                                  class="icon-icon-0" data-fill-palette-color="accent"
                                  id="SvgjsSvg3490"><path d="M30 36.4c-4.4 6.5 4.4 21 17.6 15.6 13.2-5.5 13.4 5.9 9.8 10.4-6.4 8.1-4.5 17.3-4.5 17.3s2.5-9.1 12.5-18c13.7-12.3 0.8-31-15.1-23.4-12.4 5.9-13.3 2-13.4-1.1s5-10.4 5-10.4S34.3 29.9 30 36.4z" fill="black"></path><path d="M39.3 14.8c4.7 4.3 9.8 0.8 11.8 2.9C56 22.4 44.5 34 44.5 34s17.3-5.6 15.2-17.2c-1.3-7.1-7.6-8.1-14.1-6.4-8.7 2.3-8-5.4-8-5.4S34.4 10.2 39.3 14.8z" fill="black"></path><path d="M48.1 79.9c-7.3-8.6 1.4-20.6 1.4-20.6s-13 3.5-13.7 11.6c-0.7 8.1 3.5 8.8 6.6 13.2 3.1 4.5 1 10.8 1 10.8S53.9 86.8 48.1 79.9z" fill="black"></path></svg>
                              </g>
                            </svg>
                          </g>
                        </svg>
                      </g>
                      <defs>
                        <mask></mask>
                      </defs>
                    </svg>
                    <rect width="395.52" height="61.48463440836229" fill="black" stroke="none"
                      visibility="hidden"></rect>
                  </g>
                </mask>
              </svg>
              <rect width="395.52" height="61.48463440836229" fill="black" stroke="none"
                visibility="hidden"></rect>
            </g>
          </mask>
          <linearGradient x1="0" x2="1" y1="0.5" y2="0.5" id="6b594460-8c02-41b3-98b0-2ff0957fd792">
            <stop stop-color="#ffa62e" offset="0"></stop>
            <stop stop-color="#f71b3d" offset="1"></stop>
          </linearGradient>
          <rect width="395.52" height="61.48463440836229"
            fill="url(#6b594460-8c02-41b3-98b0-2ff0957fd792)"
            mask="url(#8cafef75-b55c-446d-80dd-98d4e4c3ecf2)" data-fill-palette-color="accent"></rect>
        </svg>
        <rect width="395.52" height="61.48463440836229" fill="none" stroke="none"
          visibility="hidden"></rect>
      </g>
    </svg>
  </g>
</svg>